<svg width="3956" height="202" xmlns="http://www.w3.org/2000/svg" xmlns:xlink="http://www.w3.org/1999/xlink" xml:space="preserve" overflow="hidden"><g transform="translate(-91 -1232)"><g><path d="M96.5002 1348.49C96.5002 1318.12 100.604 1293.5 105.666 1293.5L580.335 1293.5C585.396 1293.5 589.5 1268.87 589.5 1238.5 589.5 1268.87 593.604 1293.5 598.666 1293.5L1073.33 1293.5C1078.4 1293.5 1082.5 1318.12 1082.5 1348.49" stroke="#7798AB" stroke-width="6.875" stroke-linecap="butt" stroke-linejoin="miter" stroke-miterlimit="8" stroke-opacity="1" fill="none" fill-rule="evenodd"/><path d="M2068.5 1293.51C2068.5 1323.88 2064.4 1348.5 2059.33 1348.5L1584.67 1348.5C1579.6 1348.5 1575.5 1373.13 1575.5 1403.5 1575.5 1373.13 1571.4 1348.5 1566.33 1348.5L1091.67 1348.5C1086.6 1348.5 1082.5 1323.88 1082.5 1293.51" stroke="#7798AB" stroke-width="6.875" stroke-linecap="butt" stroke-linejoin="miter" stroke-miterlimit="8" stroke-opacity="1" fill="none" fill-rule="evenodd"/><path d="M2068.5 1348.49C2068.5 1318.12 2072.6 1293.5 2077.67 1293.5L2552.33 1293.5C2557.4 1293.5 2561.5 1268.87 2561.5 1238.5 2561.5 1268.87 2565.6 1293.5 2570.67 1293.5L3045.33 1293.5C3050.4 1293.5 3054.5 1318.12 3054.5 1348.49" stroke="#7798AB" stroke-width="6.875" stroke-linecap="butt" stroke-linejoin="miter" stroke-miterlimit="8" stroke-opacity="1" fill="none" fill-rule="evenodd"/><path d="M4041.5 1320.5C4041.5 1350.88 4037.4 1375.5 4032.33 1375.5L3557.17 1375.5C3552.1 1375.5 3548 1400.12 3548 1430.5 3548 1400.12 3543.9 1375.5 3538.83 1375.5L3063.67 1375.5C3058.6 1375.5 3054.5 1350.88 3054.5 1320.5" stroke="#7798AB" stroke-width="6.875" stroke-linecap="butt" stroke-linejoin="miter" stroke-miterlimit="8" stroke-opacity="1" fill="none" fill-rule="evenodd"/></g></g></svg>